<svg version="1" xmlns="http://www.w3.org/2000/svg" width="129.333" height="129.333" viewBox="0 0 97.000000 97.000000"><path d="M46.6 15.9c-.3.5-.3 1.6 0 2.4 1.3 3.6-6.8 14-13.1 16.8-4 1.7-4 1.8-1 1.8 1.7.1 4.5-.9 6.4-2 3.3-2 3.5-2 4.8-.3.7 1 1.3 4.1 1.3 6.9 0 3.1.6 6 1.7 7.4l1.6 2.4 1.9-2.3c1.2-1.5 1.8-3.9 1.8-7.4 0-2.9.6-6 1.3-7 1.3-1.7 1.5-1.7 4.8.3 1.9 1.1 4.8 2.1 6.4 2 3 0 3-.1-1-1.8-6.5-2.9-13.8-12.4-13.2-17.3.2-2.3-2.6-3.8-3.7-1.9z"/><path d="M22.5 31c-.4.6-.2 1.6.3 2.3.6.8.5 2.8-.6 6-1.5 4.6-1.5 4.8.6 6.3 1.2.8 3.4 3.6 4.9 6.2l2.8 4.7.5-6.5c.3-3.6.9-7.1 1.4-7.8.6-1-.2-2.3-2.7-4.3-2-1.6-3.7-3.9-3.9-5.1-.3-2.4-2.3-3.5-3.3-1.8zM71.7 30.7c-.4.3-.7 1.4-.7 2.4s-1.6 3.1-3.6 4.7c-2.5 2.1-3.4 3.4-2.8 4.4.5.7 1.1 4.2 1.4 7.8l.5 6.5 2.8-4.7c1.5-2.6 3.7-5.4 4.9-6.2 2.1-1.5 2.1-1.7.6-6.3-1.1-3.2-1.2-5.2-.6-6 1.6-2-.8-4.4-2.5-2.6z"/><path d="M17.7 43.8C15.3 46.4 9 48.3 9 46.4c0-.8-.7-1.4-1.5-1.4s-1.5.4-1.5.9c0 1.2 7.1 13.4 7.5 12.9.1-.2-.1-2.7-.5-5.6-.5-4.4-.4-5.2.9-5 1.7.3 8 10.5 8.1 13 0 2.3-3.6 2.4-4.4.1-.5-1.1-1-1.3-1.7-.6-.8.8-.8 1.7 0 3.1.6 1 .7 2.2.4 2.6-.3.3 0 .6.9.6.8 0 2 1.1 2.6 2.5.7 1.5.8 2.5.2 2.5-.6 0-.5.9.2 2 1.2 1.9 2.4 2 28.3 2 25.9 0 27.1-.1 28.3-2 .7-1.1.8-2 .2-2-.6 0-.5-1 .2-2.5.6-1.4 1.8-2.5 2.6-2.5.9 0 1.2-.3.9-.6-.3-.4-.2-1.6.4-2.6.8-1.4.8-2.3 0-3.1-.7-.7-1.2-.5-1.7.6-.8 2.3-4.4 2.2-4.4-.1.1-2.5 6.4-12.7 8.1-13 1.3-.2 1.4.6.9 5-.4 2.9-.6 5.4-.5 5.6.4.5 7.5-11.7 7.5-12.9 0-.5-.7-.9-1.5-.9s-1.5.7-1.5 1.4c0 1.2-.6 1.3-3.2.4-1.8-.6-4.3-2-5.5-3.1-2.6-2.3-2.8-1.9-1.2 1.6 1 2.2-.7 7-5.6 15.9-1.5 2.8-4.5 2-5.8-1.5-.8-2.1-2.7-2.3-2.7-.3 0 .8-.4 1.8-1 2.1-1.4.8-5-1.3-4.7-2.8.1-.7-.5-1.2-1.3-1.2s-1.5.7-1.5 1.5c0 1.8-3.3 2.6-4.8 1.1-.8-.8-.6-1.1.6-1.1.9 0 1.7-.5 1.7-1 0-.6-.7-1-1.6-1-.8 0-1.3-.4-1-.9.3-.5 0-1.4-.8-2-1-.8-1.6-.8-2.5.2-.6.8-.8 1.7-.4 2 .3.4-.1.7-1 .7-1 0-1.7.4-1.7 1 0 .5.8 1 1.7 1 1.2 0 1.4.3.6 1.1-1.5 1.5-4.8.7-4.8-1.1 0-.8-.7-1.5-1.5-1.5s-1.4.5-1.3 1.2c.3 1.5-3.3 3.6-4.7 2.8-.6-.3-1-1.3-1-2.1 0-2-1.9-1.8-2.7.3-1.3 3.5-4.3 4.3-5.8 1.5-5-9.1-6.6-13.7-5.5-16 1.4-3.1.8-3.7-1.3-1.4zM20 78.5c0 1.3 3.8 1.5 28.5 1.5S77 79.8 77 78.5 73.2 77 48.5 77 20 77.2 20 78.5z"/></svg>